<mxfile host="app.diagrams.net" modified="2023-08-15T02:03:49.304Z" agent="Mozilla/5.0 (Windows NT 10.0; Win64; x64; rv:109.0) Gecko/20100101 Firefox/116.0" version="21.6.6" etag="G5fA1VAgv0b0zvfhrWER" type="github">
  <diagram name="第 1 页" id="dGK00rHq9YvOWTvlz_JN">
    <mxGraphModel>
      <root>
        <mxCell id="0" />
        <mxCell id="1" parent="0" />
      </root>
    </mxGraphModel>
  </diagram>
</mxfile>
